<svg width="203" height="100" viewBox="0 0 203 100" fill="none" xmlns="http://www.w3.org/2000/svg">
<rect width="203" height="100" rx="4" fill="#F9F9F9"/>
<path fill-rule="evenodd" clip-rule="evenodd" d="M168.775 48.2549C167.014 45.966 164.549 44.2933 161.732 43.501H161.644H161.556H161.468C161.38 43.501 161.292 43.501 161.204 43.501C160.235 43.501 159.267 44.2053 159.003 45.1737C158.651 46.3181 159.355 47.5506 160.587 47.9908C164.461 49.0473 167.102 52.5687 167.102 56.5303C167.102 61.3723 163.053 65.3339 158.122 65.3339C155.746 65.3339 153.457 64.3655 151.784 62.6929C151.256 62.1646 150.727 61.9005 150.111 61.9005C149.495 61.9005 148.967 62.1646 148.527 62.5168C148.086 62.957 147.822 63.4852 147.822 64.1014C147.822 64.7177 148.086 65.2459 148.527 65.6861C151.08 68.2391 154.513 69.6477 158.122 69.6477C165.606 69.6477 171.68 63.6612 171.68 56.2662C171.592 53.4491 170.624 50.6319 168.775 48.2549Z" fill="#0063CF"/>
<path fill-rule="evenodd" clip-rule="evenodd" d="M150.552 51.6004C151.785 49.7517 153.634 48.4311 155.746 47.8149C156.363 47.6388 156.803 47.2867 157.155 46.7584C157.507 46.2302 157.507 45.614 157.419 45.0858C156.979 44.1174 156.099 43.4131 155.13 43.4131C154.954 43.4131 154.778 43.4131 154.514 43.5011C151.345 44.3815 148.527 46.3183 146.767 49.1354C146.415 49.5756 146.327 50.1919 146.415 50.8081C146.591 51.4244 146.943 51.8646 147.383 52.2167C147.735 52.4808 148.175 52.5688 148.615 52.5688C149.408 52.5688 150.2 52.2167 150.552 51.6004Z" fill="#0063CF"/>
<path fill-rule="evenodd" clip-rule="evenodd" d="M133.738 42.7088H128.191C126.959 42.7088 125.902 43.6772 125.902 44.9097C125.902 46.1422 126.959 47.1106 128.191 47.1106H133.738C135.763 47.1106 137.435 48.6953 137.435 50.7201V60.8442C137.435 62.781 135.763 64.4537 133.738 64.4537H128.191C126.167 64.4537 124.494 62.8691 124.494 60.8442V33.2009C124.494 31.9684 123.437 31 122.205 31C120.972 31 119.916 31.9684 119.916 33.2009V60.8442C119.916 65.246 123.614 68.8555 128.103 68.8555H133.65C138.139 68.8555 141.837 65.246 141.837 60.8442V50.8081C141.925 46.3183 138.228 42.7088 133.738 42.7088Z" fill="#0063CF"/>
<path fill-rule="evenodd" clip-rule="evenodd" d="M107.593 42.5327C105.392 42.5327 103.367 43.4131 101.87 44.9097C100.374 43.4131 98.3488 42.5327 96.1479 42.5327C91.7461 42.5327 88.2246 46.0542 88.2246 50.456V66.7426C88.2246 67.9751 89.193 68.9435 90.4255 68.9435C91.658 68.9435 92.6264 67.9751 92.6264 66.7426V50.456C92.6264 48.5192 94.2111 47.0225 96.0598 47.0225C97.9966 47.0225 99.4932 48.6072 99.4932 50.456V66.7426C99.4932 67.9751 100.462 68.9435 101.694 68.9435C102.927 68.9435 103.895 67.9751 103.895 66.7426L104.071 50.456C104.071 48.5192 105.656 47.0225 107.505 47.0225C109.353 47.0225 110.938 48.6072 110.938 50.456V66.7426C110.938 67.9751 111.906 68.9435 113.139 68.9435C114.371 68.9435 115.34 67.9751 115.34 66.7426L115.516 50.456C115.516 46.0542 111.906 42.5327 107.593 42.5327Z" fill="#0063CF"/>
<path fill-rule="evenodd" clip-rule="evenodd" d="M75.194 42.5327H69.9999C65.51 42.5327 61.8125 46.1422 61.8125 50.632V60.8442C61.8125 65.3341 65.51 68.9435 69.9999 68.9435H75.194C76.4265 68.9435 77.4829 67.9751 77.4829 66.7426C77.4829 65.5101 76.5145 64.5417 75.194 64.5417H69.9999C67.975 64.5417 66.3023 62.9571 66.3023 60.9323V50.632C66.3023 48.6072 67.975 47.0225 69.9999 47.0225H75.194C76.9547 47.0225 78.4513 48.5192 78.4513 50.2799C78.4513 52.0406 76.9547 53.5372 75.194 53.5372H69.9118C68.6793 53.5372 67.6229 54.5056 67.6229 55.7381C67.6229 56.9706 68.5913 57.939 69.9118 57.939H75.194C79.5078 57.939 82.9412 54.5056 82.9412 50.1919C82.9412 45.8781 79.4197 42.5327 75.194 42.5327Z" fill="#0063CF"/>
<path fill-rule="evenodd" clip-rule="evenodd" d="M56.8833 42.5327H51.9533V42.6207C48.6079 42.9729 45.9668 45.7901 45.9668 49.1354V66.6546C45.9668 67.8871 47.0232 68.8555 48.2557 68.8555C49.4882 68.8555 50.5447 67.8871 50.5447 66.6546V49.1354C50.5447 47.9029 51.5131 46.9345 52.7456 46.9345H56.8833C58.1158 46.9345 59.1722 45.9661 59.1722 44.7336C59.1722 43.5011 58.1158 42.5327 56.8833 42.5327Z" fill="#0063CF"/>
<path fill-rule="evenodd" clip-rule="evenodd" d="M38.659 63.1332C36.7222 61.1964 35.6658 58.5553 35.6658 55.9143V44.9978C35.6658 43.7653 34.6093 42.7969 33.3768 42.7969C32.1443 42.7969 31.0879 43.7653 31.0879 44.9978V55.9143C31.0879 59.7879 32.5845 63.3973 35.4017 66.2145L37.3384 68.1513C37.7786 68.5915 38.3949 68.8556 39.0111 68.8556C39.6274 68.8556 40.1556 68.6795 40.5958 68.2393C41.036 67.7991 41.3001 67.2709 41.3001 66.6547C41.3001 66.0384 41.124 65.5102 40.6838 65.1581L38.659 63.1332Z" fill="#0063CF"/>
<path fill-rule="evenodd" clip-rule="evenodd" d="M33.553 38.5709C34.8736 38.5709 36.0181 37.5144 36.0181 36.1939C36.0181 34.8733 34.8736 33.8169 33.553 33.8169C32.2325 33.8169 31 34.8733 31 36.1939C31 37.5144 32.1445 38.5709 33.553 38.5709Z" fill="#0063CF"/>
</svg>
